<svg width="103" height="15" viewBox="0 0 103 15" fill="none" xmlns="http://www.w3.org/2000/svg">
<path d="M2.3969e-06 14.4635L1.50681 14.4635L1.5068 0.23999L0 0.23999L2.3969e-06 14.4635Z" fill="#161C23"/>
<path d="M8.09571 14.4635L9.60251 14.4635L9.60251 1.63271L14.7584 1.63271L14.7584 0.23999L2.93977 0.23999L2.93977 1.63271L8.09571 1.63271L8.09571 14.4635Z" fill="#161C23"/>
<path d="M15.9922 14.4635L25.2175 14.4635L25.2175 13.0708L17.499 13.0708L17.499 7.94439L23.9875 7.94439L23.9875 6.55167L17.499 6.55167L17.499 1.63271L25.2175 1.63271L25.2175 0.23999L15.9922 0.23999L15.9922 14.4635Z" fill="#161C23"/>
<path d="M27.274 14.4635L28.7808 14.4635L28.7808 9.06054L33.496 9.06054L36.2123 14.4635L37.9446 14.4635L35.0335 8.70495C35.8604 8.38229 36.4959 7.85878 36.9401 7.13444C37.3843 6.41009 37.6063 5.58368 37.6063 4.6552C37.6063 3.54234 37.2954 2.58423 36.6736 1.78087C36.0517 0.977505 35.1633 0.490219 34.0085 0.31901C33.824 0.286085 33.6395 0.26633 33.4549 0.259745C33.2773 0.246575 33.1167 0.23999 32.9732 0.23999L27.274 0.23999L27.274 14.4635ZM28.7808 7.6777L28.7808 1.63271L32.9322 1.63271C33.0552 1.63271 33.1987 1.63929 33.3627 1.65246C33.5335 1.65905 33.6941 1.6788 33.8445 1.71173C34.603 1.86977 35.1599 2.23523 35.5153 2.80812C35.8774 3.37443 36.0585 3.99012 36.0585 4.6552C36.0585 5.3137 35.8774 5.92939 35.5153 6.50228C35.1599 7.07517 34.603 7.43734 33.8445 7.5888C33.6941 7.62172 33.5335 7.64477 33.3627 7.65794C33.1987 7.67111 33.0552 7.6777 32.9322 7.6777L28.7808 7.6777Z" fill="#161C23"/>
<path d="M40.0021 14.4635L41.5089 14.4635L41.5089 0.23999L40.002 0.23999L40.0021 14.4635Z" fill="#161C23"/>
<path d="M49.9326 14.7598C51.0601 14.7598 52.0544 14.5359 52.9154 14.0881C53.7833 13.6338 54.4632 12.9983 54.9553 12.1818C55.4473 11.3653 55.6933 10.4137 55.6933 9.32723L55.6933 0.23999L54.1762 0.23999L54.1762 9.13955C54.1762 9.87707 54.0464 10.5158 53.7867 11.0558C53.5339 11.5892 53.1956 12.0304 52.7719 12.3794C52.3551 12.7218 51.8972 12.9753 51.3984 13.1399C50.8995 13.3045 50.4109 13.3869 49.9326 13.3869C49.4611 13.3869 48.9759 13.3045 48.477 13.1399C47.9782 12.9753 47.5169 12.7218 47.0932 12.3794C46.6764 12.0304 46.3381 11.5892 46.0784 11.0558C45.8188 10.5158 45.6889 9.87707 45.6889 9.13955L45.6889 0.23999L44.1719 0.249868L44.1719 9.32723C44.1719 10.4203 44.4179 11.3751 44.9099 12.1917C45.4019 13.0082 46.0819 13.6404 46.9497 14.0881C47.8176 14.5359 48.8119 14.7598 49.9326 14.7598Z" fill="#161C23"/>
<path d="M58.1564 14.4635L59.6017 14.4635L59.6017 3.47979L64.8499 14.4635L65.8237 14.4635L71.0821 3.47979L71.0821 14.4536L72.5172 14.4536L72.5172 0.23999L71.1129 0.23999L65.3419 12.2016L59.5402 0.23999L58.1564 0.23999L58.1564 14.4635Z" fill="#161C23"/>
<path d="M74.4713 14.4635L75.1632 14.4635L75.1632 13.7968L74.4713 13.7968L74.4713 14.4635Z" fill="#161C23"/>
<path d="M79.0116 14.4635L79.496 14.4635L79.496 6.92948L82.5403 6.92948L82.5403 6.46277L75.9673 6.46277L75.9673 6.92948L79.0116 6.92948L79.0116 14.4635Z" fill="#161C23"/>
<path d="M83.2304 14.4635L88.3043 14.4635L88.3043 13.9968L83.7148 13.9968L83.7148 10.6965L87.6125 10.6965L87.6125 10.2298L83.7148 10.2298L83.7148 6.92948L88.3043 6.92948L88.3043 6.46277L83.2304 6.46277L83.2304 14.4635Z" fill="#161C23"/>
<path d="M92.4232 14.6302C93.3919 14.6302 94.1722 14.3876 94.7641 13.9023C95.3561 13.4134 95.7559 12.7633 95.9634 11.9522L95.456 11.841C95.2715 12.5448 94.9256 13.1078 94.4182 13.5301C93.9147 13.9523 93.2497 14.1635 92.4232 14.1635C91.7121 14.1635 91.1163 14.006 90.6358 13.6912C90.1592 13.3727 89.8017 12.9356 89.5634 12.38C89.325 11.8244 89.2097 11.1854 89.2174 10.4631C89.2251 9.74084 89.3481 9.1019 89.5864 8.54629C89.8247 7.98698 90.1784 7.54991 90.6473 7.23506C91.1201 6.92022 91.7121 6.7628 92.4232 6.7628C93.2497 6.7628 93.9147 6.97393 94.4182 7.39619C94.9256 7.81475 95.2715 8.37776 95.456 9.08523L95.9634 8.97411C95.7559 8.16292 95.3561 7.51472 94.7641 7.02949C94.1722 6.54056 93.3919 6.29609 92.4232 6.29609C91.5968 6.29609 90.9068 6.47388 90.3533 6.82947C89.8036 7.18506 89.3904 7.67584 89.1136 8.30183C88.8369 8.92781 88.6985 9.64824 88.6985 10.4631C88.6985 11.278 88.8369 11.9985 89.1136 12.6244C89.3904 13.2504 89.8036 13.7412 90.3533 14.0968C90.9068 14.4524 91.5968 14.6302 92.4232 14.6302Z" fill="#161C23"/>
<path d="M97.0035 14.4635L97.4879 14.4635L97.4879 10.6965L102.516 10.6965L102.516 14.4635L103 14.4635L103 6.46277L102.516 6.46277L102.516 10.2298L97.4879 10.2298L97.4879 6.46277L97.0035 6.46277L97.0035 14.4635Z" fill="#161C23"/>
</svg>
