<svg width="45" height="45" viewBox="0 0 45 45" fill="none" xmlns="http://www.w3.org/2000/svg">
<path fill-rule="evenodd" clip-rule="evenodd" d="M22.5 45C34.9264 45 45 34.9264 45 22.5C45 10.0736 34.9264 0 22.5 0C10.0736 0 0 10.0736 0 22.5C0 34.9264 10.0736 45 22.5 45ZM11.4656 13.4473H33.6371C34.9476 13.4473 36.0014 14.5141 36.0014 15.8115V29.9971C36.0014 31.309 34.9324 32.3613 33.6371 32.3613H11.4656C10.1671 32.3613 9.10135 31.3045 9.10135 29.9971V15.8115C9.10135 14.5118 10.1593 13.4473 11.4656 13.4473ZM24.2231 24.0584L33.306 15.0234H11.7967L20.8781 24.057C21.3261 24.505 21.9198 24.7509 22.5513 24.7509C23.1829 24.7509 23.7766 24.505 24.2231 24.0584ZM10.6775 16.1333V29.6763L17.4886 22.9085L10.6775 16.1333ZM18.6061 24.0201L11.7977 30.7852H33.305L26.4966 24.0201L25.3362 25.1744C24.5934 25.9172 23.6039 26.3271 22.5513 26.3271C21.4988 26.3271 20.5093 25.9172 19.765 25.1729L18.6061 24.0201ZM27.6141 22.9085L34.4252 29.6763V16.1333L27.6141 22.9085Z" fill="white"/>
</svg>
