<svg width="45" height="45" viewBox="0 0 45 45" fill="none" xmlns="http://www.w3.org/2000/svg">
<path fill-rule="evenodd" clip-rule="evenodd" d="M22.5 0C10.0736 0 0 10.0736 0 22.5C0 34.9264 10.0736 45 22.5 45C34.9264 45 45 34.9264 45 22.5C45 10.0736 34.9264 0 22.5 0ZM17.553 10.5725C18.833 10.5142 19.242 10.5 22.501 10.5H22.4973C25.7573 10.5 26.1648 10.5142 27.4448 10.5725C28.7223 10.631 29.5949 10.8332 30.3599 11.13C31.1499 11.4362 31.8174 11.8462 32.4849 12.5137C33.1524 13.1808 33.5624 13.8503 33.8699 14.6395C34.1649 15.4025 34.3674 16.2745 34.4274 17.5521C34.4849 18.8321 34.4999 19.2411 34.4999 22.5001C34.4999 25.7591 34.4849 26.1671 34.4274 27.4472C34.3674 28.7242 34.1649 29.5964 33.8699 30.3597C33.5624 31.1487 33.1524 31.8182 32.4849 32.4852C31.8181 33.1527 31.1496 33.5637 30.3606 33.8702C29.5971 34.167 28.7241 34.3692 27.4466 34.4277C26.1666 34.486 25.7588 34.5002 22.4995 34.5002C19.2407 34.5002 18.832 34.486 17.552 34.4277C16.2747 34.3692 15.4025 34.167 14.639 33.8702C13.8502 33.5637 13.1807 33.1527 12.5139 32.4852C11.8467 31.8182 11.4367 31.1487 11.1299 30.3594C10.8334 29.5964 10.6312 28.7244 10.5724 27.4469C10.5144 26.1669 10.4999 25.7591 10.4999 22.5001C10.4999 19.2411 10.5149 18.8318 10.5722 17.5518C10.6297 16.2748 10.8322 15.4025 11.1297 14.6393C11.4372 13.8503 11.8472 13.1808 12.5147 12.5137C13.1817 11.8465 13.8512 11.4365 14.6405 11.13C15.4035 10.8332 16.2755 10.631 17.553 10.5725Z" fill="#161C23"/>
<path fill-rule="evenodd" clip-rule="evenodd" d="M21.4261 12.6627C21.6352 12.6623 21.86 12.6624 22.1027 12.6626L22.5026 12.6627C25.7067 12.6627 26.0864 12.6742 27.3517 12.7317C28.5217 12.7852 29.1567 12.9807 29.5797 13.1449C30.1397 13.3624 30.539 13.6224 30.9587 14.0424C31.3787 14.4624 31.6387 14.8624 31.8567 15.4224C32.021 15.845 32.2167 16.48 32.27 17.65C32.3275 18.915 32.34 19.295 32.34 22.4975C32.34 25.7001 32.3275 26.0801 32.27 27.3451C32.2165 28.5151 32.021 29.1501 31.8567 29.5726C31.6392 30.1326 31.3787 30.5314 30.9587 30.9511C30.5387 31.3711 30.14 31.6311 29.5797 31.8486C29.1572 32.0136 28.5217 32.2086 27.3517 32.2621C26.0867 32.3196 25.7067 32.3321 22.5026 32.3321C19.2984 32.3321 18.9186 32.3196 17.6536 32.2621C16.4836 32.2081 15.8486 32.0126 15.4253 31.8484C14.8653 31.6309 14.4653 31.3709 14.0453 30.9509C13.6253 30.5309 13.3653 30.1319 13.1473 29.5716C12.983 29.1491 12.7873 28.5141 12.734 27.3441C12.6765 26.0791 12.665 25.6991 12.665 22.4945C12.665 19.29 12.6765 18.912 12.734 17.647C12.7875 16.477 12.983 15.842 13.1473 15.4189C13.3648 14.8589 13.6253 14.4589 14.0453 14.0389C14.4653 13.6189 14.8653 13.3589 15.4253 13.1409C15.8483 12.9759 16.4836 12.7809 17.6536 12.7272C18.7606 12.6772 19.1896 12.6622 21.4261 12.6597V12.6627ZM28.9083 14.6552C28.1133 14.6552 27.4683 15.2995 27.4683 16.0947C27.4683 16.8897 28.1133 17.5347 28.9083 17.5347C29.7033 17.5347 30.3483 16.8897 30.3483 16.0947C30.3483 15.2997 29.7033 14.6547 28.9083 14.6547V14.6552ZM16.34 22.5002C16.34 19.097 19.0991 16.3378 22.5023 16.3377C25.9056 16.3377 28.6641 19.097 28.6641 22.5002C28.6641 25.9035 25.9058 28.6616 22.5025 28.6616C19.0992 28.6616 16.34 25.9035 16.34 22.5002Z" fill="#161C23"/>
<path d="M22.501 18.5C24.71 18.5 26.5011 20.2908 26.5011 22.5C26.5011 24.7091 24.71 26.5001 22.501 26.5001C20.2917 26.5001 18.501 24.7091 18.501 22.5C18.501 20.2908 20.2917 18.5 22.501 18.5Z" fill="#161C23"/>
</svg>
