<svg width="45" height="45" viewBox="0 0 45 45" fill="none" xmlns="http://www.w3.org/2000/svg">
<path fill-rule="evenodd" clip-rule="evenodd" d="M22.5 0C10.0736 0 0 10.0736 0 22.5C0 34.9264 10.0736 45 22.5 45C34.9264 45 45 34.9264 45 22.5C45 10.0736 34.9264 0 22.5 0ZM17.553 10.5725C18.833 10.5142 19.242 10.5 22.501 10.5H22.4973C25.7573 10.5 26.1648 10.5142 27.4448 10.5725C28.7223 10.631 29.5949 10.8332 30.3599 11.13C31.1499 11.4362 31.8174 11.8462 32.4849 12.5137C33.1524 13.1808 33.5624 13.8503 33.8699 14.6395C34.1649 15.4025 34.3674 16.2745 34.4274 17.5521C34.4849 18.8321 34.4999 19.2411 34.4999 22.5001C34.4999 25.7591 34.4849 26.1671 34.4274 27.4472C34.3674 28.7242 34.1649 29.5964 33.8699 30.3597C33.5624 31.1487 33.1524 31.8182 32.4849 32.4852C31.8181 33.1527 31.1496 33.5637 30.3606 33.8702C29.5971 34.167 28.7241 34.3692 27.4466 34.4277C26.1666 34.486 25.7588 34.5002 22.4995 34.5002C19.2407 34.5002 18.832 34.486 17.552 34.4277C16.2747 34.3692 15.4025 34.167 14.639 33.8702C13.8502 33.5637 13.1807 33.1527 12.5139 32.4852C11.8467 31.8182 11.4367 31.1487 11.1299 30.3594C10.8334 29.5964 10.6312 28.7244 10.5724 27.4469C10.5144 26.1669 10.4999 25.7591 10.4999 22.5001C10.4999 19.2411 10.5149 18.8318 10.5722 17.5518C10.6297 16.2748 10.8322 15.4025 11.1297 14.6393C11.4372 13.8503 11.8472 13.1808 12.5147 12.5137C13.1817 11.8465 13.8512 11.4365 14.6405 11.13C15.4035 10.8332 16.2755 10.631 17.553 10.5725Z" fill="white"/>
<path fill-rule="evenodd" clip-rule="evenodd" d="M21.4261 12.6622C21.6352 12.6619 21.86 12.662 22.1027 12.6621L22.5026 12.6622C25.7067 12.6622 26.0864 12.6737 27.3517 12.7312C28.5217 12.7847 29.1567 12.9802 29.5797 13.1444C30.1397 13.3619 30.539 13.6219 30.9587 14.0419C31.3787 14.4619 31.6387 14.862 31.8567 15.422C32.021 15.8445 32.2167 16.4795 32.27 17.6495C32.3275 18.9145 32.34 19.2945 32.34 22.497C32.34 25.6996 32.3275 26.0796 32.27 27.3446C32.2165 28.5146 32.021 29.1496 31.8567 29.5721C31.6392 30.1321 31.3787 30.5309 30.9587 30.9506C30.5387 31.3706 30.14 31.6306 29.5797 31.8481C29.1572 32.0131 28.5217 32.2081 27.3517 32.2616C26.0867 32.3191 25.7067 32.3316 22.5026 32.3316C19.2984 32.3316 18.9186 32.3191 17.6536 32.2616C16.4836 32.2076 15.8486 32.0121 15.4253 31.8479C14.8653 31.6304 14.4653 31.3704 14.0453 30.9504C13.6253 30.5304 13.3653 30.1314 13.1473 29.5711C12.983 29.1486 12.7873 28.5136 12.734 27.3436C12.6765 26.0786 12.665 25.6986 12.665 22.494C12.665 19.2895 12.6765 18.9115 12.734 17.6465C12.7875 16.4765 12.983 15.8415 13.1473 15.4185C13.3648 14.8585 13.6253 14.4584 14.0453 14.0384C14.4653 13.6184 14.8653 13.3584 15.4253 13.1404C15.8483 12.9754 16.4836 12.7804 17.6536 12.7267C18.7606 12.6767 19.1896 12.6617 21.4261 12.6592V12.6622ZM28.9083 14.6547C28.1133 14.6547 27.4683 15.299 27.4683 16.0942C27.4683 16.8893 28.1133 17.5343 28.9083 17.5343C29.7033 17.5343 30.3483 16.8893 30.3483 16.0942C30.3483 15.2992 29.7033 14.6542 28.9083 14.6542V14.6547ZM16.34 22.4998C16.34 19.0966 19.0991 16.3373 22.5023 16.3372C25.9056 16.3372 28.6641 19.0965 28.6641 22.4998C28.6641 25.903 25.9058 28.6611 22.5025 28.6611C19.0992 28.6611 16.34 25.903 16.34 22.4998Z" fill="white"/>
<path d="M22.501 18.5C24.71 18.5 26.5011 20.2908 26.5011 22.5C26.5011 24.7091 24.71 26.5001 22.501 26.5001C20.2917 26.5001 18.501 24.7091 18.501 22.5C18.501 20.2908 20.2917 18.5 22.501 18.5Z" fill="white"/>
</svg>
