<svg width="45" height="45" viewBox="0 0 45 45" fill="none" xmlns="http://www.w3.org/2000/svg">
<path fill-rule="evenodd" clip-rule="evenodd" d="M22.5 45C34.9264 45 45 34.9264 45 22.5C45 10.0736 34.9264 0 22.5 0C10.0736 0 0 10.0736 0 22.5C0 34.9264 10.0736 45 22.5 45ZM22.5515 10.125C25.8479 10.1264 28.9421 11.4036 31.2687 13.7218C33.5955 16.0398 34.8761 19.121 34.8747 22.3982C34.8721 29.1603 29.3434 34.6623 22.5516 34.6623H22.5465C20.4841 34.6617 18.4576 34.1467 16.6575 33.1695L10.1247 34.875L11.873 28.5198C10.7946 26.6599 10.2272 24.5499 10.2281 22.3884C10.2308 15.6265 15.759 10.125 22.5515 10.125ZM22.5472 32.5911H22.5515C28.1971 32.5911 32.7917 28.0181 32.7942 22.3974C32.7951 19.6736 31.7307 17.1125 29.797 15.1857C27.8632 13.2589 25.2914 12.1973 22.5556 12.1964C16.9059 12.1964 12.3109 16.7689 12.3088 22.3891C12.3079 24.3152 12.8493 26.191 13.8747 27.8141L14.1183 28.1997L13.0835 31.9613L16.9602 30.9492L17.3341 31.1702C18.9069 32.0988 20.7094 32.5903 22.5472 32.5911ZM26.0657 23.9596C26.348 24.062 27.862 24.8031 28.1698 24.9566C28.2302 24.9867 28.2867 25.0139 28.339 25.039C28.5533 25.1421 28.6981 25.2117 28.7598 25.3144C28.8369 25.4424 28.8369 26.0559 28.5804 26.7717C28.3235 27.4875 27.0936 28.1408 26.5019 28.2289C25.9713 28.3077 25.3002 28.3407 24.5625 28.1074C24.1152 27.9662 23.5418 27.7778 22.8071 27.4618C19.9206 26.2215 17.9698 23.4371 17.601 22.9108C17.5752 22.8739 17.5571 22.8482 17.547 22.8348L17.5443 22.8311C17.3804 22.6134 16.2898 21.1644 16.2898 19.6647C16.2898 18.2532 16.9863 17.5135 17.3069 17.1729C17.3289 17.1495 17.3492 17.128 17.3673 17.1083C17.6496 16.8013 17.9833 16.7247 18.1885 16.7247C18.3939 16.7247 18.5992 16.7266 18.7786 16.7355C18.8007 16.7366 18.8237 16.7364 18.8474 16.7363C19.027 16.7352 19.2506 16.7339 19.4715 17.2615C19.5559 17.4633 19.6791 17.7618 19.8092 18.0771C20.0748 18.7207 20.3691 19.434 20.4207 19.5369C20.4978 19.6902 20.5492 19.8693 20.4465 20.0738C20.3439 20.2782 20.0101 20.7101 19.6768 21.122C19.6625 21.1396 19.6478 21.157 19.6331 21.1744C19.5069 21.3236 19.381 21.4725 19.5417 21.7474C19.7214 22.0541 20.3393 23.0576 21.2546 23.8701C22.2389 24.7438 23.0943 25.1131 23.5277 25.3001C23.6122 25.3366 23.6806 25.3662 23.7309 25.3912C24.0389 25.5447 24.2183 25.519 24.398 25.3144C24.5777 25.1101 25.1677 24.4197 25.3731 24.113C25.5781 23.8064 25.7837 23.8573 26.0657 23.9596Z" fill="#161C23"/>
</svg>
