<svg width="257" height="996" viewBox="0 0 257 996" fill="none" xmlns="http://www.w3.org/2000/svg">
<path d="M469.094 221.033L625.075 220.846M624.846 294.89L702.722 184.199M781.057 221.409L702.951 110.906M781.287 74.0715L625.305 74.2595M625.304 0.215088L547.658 110.718M469.325 73.6955L547.43 184.01M624.613 442.228L780.595 442.04M780.593 516.084L858.469 405.581M936.576 442.604L858.471 332.101M937.036 295.266L780.825 295.454M781.054 221.409L703.178 331.912M624.844 294.89L703.18 405.393M312.652 441.851L468.634 441.663M468.632 515.708L546.278 405.205M546.51 331.724L624.616 442.227L546.739 552.918M624.845 294.889L468.864 295.077M469.093 221.033L391.217 331.724M312.883 294.513L390.989 405.016M0.691406 441.477L156.673 441.289M156.444 515.333L234.32 404.83M312.655 441.852L234.549 331.35M312.884 294.515L156.903 294.703M157.132 220.658L79.2558 331.349M0.922357 294.139L79.0279 404.642M468.402 663.045L624.384 662.857M624.155 736.902L702.031 626.399M780.364 663.421L702.029 552.918M780.595 516.083L624.614 516.271M468.633 515.707L546.739 626.21M1092.79 442.416L936.578 442.603L858.932 553.106M1092.56 516.46L1170.43 405.769M1248.77 442.979L1170.44 332.476M1249 295.642L1093.02 295.829M1093.02 221.785L1015.14 332.288M937.037 295.265L1015.14 405.58M780.367 663.422L936.349 663.234M936.12 737.278L1014 626.775M1092.33 663.798L1014.22 553.295M1092.56 516.46L936.579 516.648M780.598 516.084L858.704 626.587M935.887 884.616L1091.87 884.428M1091.87 958.472L1169.74 847.969M1248.08 884.992L1169.74 774.489M1248.31 737.654L1092.1 737.842M1092.33 663.797L1014.45 774.488M936.118 737.278L1014.45 847.781M156.211 662.669H312.422M312.19 736.714L390.066 626.023M468.404 663.045L390.069 552.73M468.635 515.708L312.653 515.896M312.651 441.851L234.775 552.542M156.442 515.332L234.777 625.835M311.965 884.052L467.946 883.864M623.928 884.428L545.822 773.925M624.158 737.09H468.176M468.405 663.234L390.529 773.737M312.196 736.714L390.531 847.029M0 883.676L155.981 883.488M155.98 957.532L233.626 846.842M311.963 884.052L233.858 773.549M312.193 736.714L156.211 736.902M156.44 662.858L78.5644 773.361M0.230951 736.338L78.3365 846.841M623.93 884.428L779.911 884.24M779.909 958.284L857.785 847.593M935.893 884.616L857.787 774.301M936.123 737.278L780.141 737.466M780.37 663.422L702.494 774.113M624.161 736.902L702.496 847.405M779.908 958.283H623.927M623.925 884.427L546.049 994.93" stroke="url(#paint0_linear)" stroke-width="0.25" stroke-miterlimit="10"/>
<defs>
<linearGradient id="paint0_linear" x1="1120.5" y1="0.215088" x2="-567.5" y2="0.215088" gradientUnits="userSpaceOnUse">
<stop/>
<stop offset="1" stop-opacity="0"/>
</linearGradient>
</defs>
</svg>
